<svg width="30" height="28" fill="none" xmlns="http://www.w3.org/2000/svg"><circle cx="11.5" cy="10.5" r="4" stroke="#41464B"/><path opacity=".3" fill-rule="evenodd" clip-rule="evenodd" d="M14.335 17.997a4.488 4.488 0 0 1-1.142-.19A4.502 4.502 0 0 0 22 16.5a4.502 4.502 0 0 0-3.193-4.307c.11.363.176.746.19 1.143a3.5 3.5 0 1 1-4.662 4.661Z" fill="#41464B" fill-opacity=".9"/><path opacity=".6" fill-rule="evenodd" clip-rule="evenodd" d="M11.335 14.997a4.488 4.488 0 0 1-1.142-.19A4.502 4.502 0 0 0 19 13.5a4.502 4.502 0 0 0-3.193-4.307c.11.363.176.746.19 1.143a3.5 3.5 0 1 1-4.662 4.661Z" fill="#41464B" fill-opacity=".9"/></svg>