<svg width="30" height="28" fill="none" xmlns="http://www.w3.org/2000/svg"><path fill-rule="evenodd" clip-rule="evenodd" d="M8 13.392v-1.585L10.806 9h1.586L8 13.392ZM8 9h1.392L8 10.392V9Zm0 5.806v1.586L15.392 9h-1.585L8 14.806Zm0 4.366v-1.366L16.806 9h1.366L8 19.172Zm.586.828h1.416L21 9.002V9h-1.414l-11 11Zm4.356 0h-1.526L21 10.416v1.526L12.942 20Zm1.414 0h1.375L21 14.731v-1.375L14.356 20Zm4.375 0h-1.586L21 16.145v1.586L18.731 20Zm1.414 0H21v-.855l-.855.855Z" fill="#41464B" fill-opacity=".9"/></svg>