<svg width="30" height="28" fill="none" xmlns="http://www.w3.org/2000/svg"><path fill-rule="evenodd" clip-rule="evenodd" d="M15.08 13.65c.615 0 1.093-.087 1.435-.262.537-.274.806-.769.806-1.483 0-.718-.286-1.203-.857-1.452-.322-.14-.8-.21-1.436-.21h-2.6v3.407h2.652Zm.49 5.077c.894 0 1.531-.265 1.912-.794.24-.334.359-.738.359-1.213 0-.798-.35-1.343-1.047-1.632-.372-.155-.862-.232-1.473-.232h-2.893v3.871h3.142ZM11 9h4.622c1.26 0 2.155.384 2.688 1.153.312.454.468.979.468 1.573 0 .694-.192 1.263-.578 1.707-.2.235-.489.45-.865.644.552.215.965.457 1.238.726.484.48.725 1.14.725 1.985a3.11 3.11 0 0 1-.651 1.924c-.65.859-1.683 1.288-3.099 1.288H11V9Z" fill="#555"/></svg>