<svg width="30" height="28" fill="none" xmlns="http://www.w3.org/2000/svg"><path fill-rule="evenodd" clip-rule="evenodd" d="M19.375 19.808c-.402 0-.767-.166-1.031-.437l-.37-.66a1.499 1.499 0 0 1-.057-.392c0-.821.654-1.49 1.458-1.49.804 0 1.458.669 1.458 1.49s-.654 1.49-1.458 1.49Zm-10.208-1.49c0-.82.654-1.489 1.458-1.489.804 0 1.458.669 1.458 1.49 0 .136-.024.266-.057.392l-.37.66a1.44 1.44 0 0 1-1.031.437c-.804 0-1.458-.668-1.458-1.49Zm10.208-2.68c-1.007 0-1.874.588-2.314 1.44l-1.389-2.483L19.59 7.59 18.577 7 15 13.394 11.423 7l-1.013.591 3.919 7.004-1.39 2.484c-.44-.852-1.307-1.442-2.314-1.442C9.178 15.637 8 16.841 8 18.32 8 19.798 9.178 21 10.625 21c.778 0 1.47-.353 1.95-.904l.015.008.046-.083c.195-.24.35-.51.454-.81L15 15.797l1.91 3.416c.105.298.26.569.454.809l.046.083.014-.008c.481.55 1.173.904 1.951.904C20.822 21 22 19.797 22 18.319c0-1.479-1.178-2.682-2.625-2.682Z" fill="#555"/></svg>