<svg width="14" height="14" fill="none" xmlns="http://www.w3.org/2000/svg"><path fill-rule="evenodd" clip-rule="evenodd" d="M8.346.875H5.52v.942H2.625a.875.875 0 0 0-.875.875v.539h10.365v-.539a.875.875 0 0 0-.875-.875H8.346V.875ZM2.692 4.173h8.481v8.077a.875.875 0 0 1-.875.875h-6.73a.875.875 0 0 1-.876-.875V4.173ZM5.52 6.058h-.942v4.711a.471.471 0 1 0 .942 0V6.058Zm.943 0h.942v4.711a.471.471 0 1 1-.942 0V6.058Zm2.826 0h-.942v4.711a.471.471 0 1 0 .942 0V6.058Z" fill="#41464B" fill-opacity=".9"/></svg>