<svg width="30" height="28" fill="none" xmlns="http://www.w3.org/2000/svg"><path fill-rule="evenodd" clip-rule="evenodd" d="M21.244 13.404h-.36l-5.303 5.304a1 1 0 0 1-1.415 0L9.57 14.112a1 1 0 0 1 0-1.415l5.657-5.657.354-1.06.79.79 5.574 5.574.02.06.333 1h-1.054Zm-10.967 0 5.657-5.656 4.657 4.656h-.121l-.293.293-1.783 1.783h-7.041l-1.076-1.076Z" fill="#555"/><path fill-rule="evenodd" clip-rule="evenodd" d="M21.086 15.817a.828.828 0 0 1 1.595.308v.945a1.01 1.01 0 1 1-1.946-.375l.35-.878Z" fill="#929292"/><path fill="#8AB3E9" d="M8 21h14v3H8z"/></svg>