<svg width="30" height="28" fill="none" xmlns="http://www.w3.org/2000/svg"><path fill-rule="evenodd" clip-rule="evenodd" d="M12.802 17.77c-.254-.37-.398-.85-.432-1.441H11c-.014 1.126.357 2.019 1.114 2.677.756.663 1.804.994 3.142.994 1.147 0 2.154-.248 3.021-.746.867-.497 1.3-1.323 1.3-2.478 0-.727-.21-1.32-.63-1.776H22v-1h-5.098a3.53 3.53 0 0 0-.035-.008l-1.509-.334c-1.015-.227-1.667-.416-1.955-.568-.44-.236-.66-.61-.66-1.122 0-.464.189-.87.564-1.221.377-.35.994-.526 1.854-.526 1.064 0 1.818.273 2.263.817.239.298.395.727.468 1.285h1.37c0-1.16-.394-2.003-1.183-2.531C17.291 9.264 16.332 9 15.204 9c-1.225 0-2.172.3-2.841.902-.67.601-1.004 1.37-1.004 2.308 0 .764.266 1.361.799 1.79H9v1h6.083l.78.171c.792.175 1.373.381 1.744.618.366.241.55.646.55 1.214 0 .758-.435 1.283-1.305 1.577-.449.151-.947.227-1.494.227-1.22 0-2.072-.346-2.556-1.037Z" fill="#555"/></svg>